<svg width="1590" height="1000" viewBox="0 0 1590 1000" fill="none" xmlns="http://www.w3.org/2000/svg">
<path d="M516.605 758.847H179.094C178.293 758.891 177.541 759.255 177.004 759.861C176.466 760.466 176.187 761.263 176.226 762.078V762.078C176.187 762.892 176.466 763.689 177.004 764.295C177.541 764.9 178.293 765.265 179.094 765.309H516.605C517.407 765.265 518.158 764.9 518.695 764.295C519.233 763.689 519.513 762.892 519.473 762.078C519.513 761.263 519.233 760.466 518.695 759.861C518.158 759.255 517.407 758.891 516.605 758.847Z" fill="black"/>
<path d="M963.639 758.831H580.509C578.753 758.831 577.33 760.278 577.33 762.062V762.07C577.33 763.854 578.753 765.301 580.509 765.301H963.639C965.395 765.301 966.818 763.854 966.818 762.07V762.062C966.818 760.278 965.395 758.831 963.639 758.831Z" fill="black"/>
<path d="M1183.58 762.062C1183.58 763.851 1185.38 765.293 1187.6 765.293H1453.6C1455.82 765.293 1457.62 763.844 1457.62 762.062C1457.62 760.273 1455.82 758.831 1453.6 758.831H1187.57C1185.35 758.847 1183.58 760.281 1183.58 762.062Z" fill="black"/>
<path d="M620.506 796.354H437.347C435.591 796.354 434.168 797.801 434.168 799.585V799.593C434.168 801.377 435.591 802.824 437.347 802.824H620.506C622.262 802.824 623.685 801.377 623.685 799.593V799.585C623.685 797.801 622.262 796.354 620.506 796.354Z" fill="black"/>
<path d="M1236.03 799.593C1236.03 798.736 1235.7 797.914 1235.1 797.308C1234.51 796.702 1233.7 796.362 1232.86 796.362H870.596C870.773 797.174 870.863 798.005 870.861 798.837V799.608C870.871 800.458 871.21 801.27 871.806 801.868C872.401 802.466 873.203 802.801 874.04 802.801H1232.85C1233.69 802.803 1234.5 802.466 1235.09 801.865C1235.69 801.264 1236.03 800.447 1236.03 799.593V799.593Z" fill="black"/>
<path d="M717.374 799.593C717.374 800.45 717.709 801.272 718.305 801.878C718.901 802.483 719.709 802.824 720.553 802.824H783.045C782.955 802.315 782.907 801.799 782.9 801.282V799.608C782.9 799.184 782.818 798.764 782.658 798.372C782.499 797.98 782.265 797.624 781.969 797.324C781.674 797.024 781.324 796.786 780.938 796.623C780.552 796.461 780.139 796.377 779.722 796.377H720.545C719.706 796.379 718.901 796.718 718.307 797.321C717.713 797.923 717.378 798.74 717.374 799.593V799.593Z" fill="black"/>
<path d="M793.719 843.261H758.562C756.807 843.261 755.383 844.708 755.383 846.492V846.5C755.383 848.285 756.807 849.731 758.562 849.731H793.719C795.475 849.731 796.898 848.285 796.898 846.5V846.492C796.898 844.708 795.475 843.261 793.719 843.261Z" fill="black"/>
<path d="M614.824 846.5C614.824 848.289 618.033 849.731 621.986 849.731H701.115C705.076 849.731 708.277 848.281 708.277 846.5C708.277 844.711 705.068 843.269 701.115 843.269H621.993C618.033 843.261 614.824 844.711 614.824 846.5Z" fill="black"/>
<path d="M873.266 843.261H820.364C818.608 843.261 817.185 844.708 817.185 846.492V846.5C817.185 848.285 818.608 849.731 820.364 849.731H873.266C875.022 849.731 876.445 848.285 876.445 846.5V846.492C876.445 844.708 875.022 843.261 873.266 843.261Z" fill="black"/>
<path d="M467.701 206.061C465.035 206.061 462.428 206.864 460.211 208.37C457.994 209.876 456.266 212.016 455.246 214.52C454.226 217.023 453.959 219.779 454.479 222.437C454.999 225.095 456.283 227.536 458.168 229.453C460.054 231.369 462.456 232.674 465.071 233.203C467.686 233.732 470.397 233.46 472.861 232.423C475.324 231.386 477.43 229.63 478.911 227.376C480.392 225.123 481.183 222.474 481.183 219.763C481.183 216.129 479.763 212.644 477.234 210.074C474.706 207.504 471.277 206.061 467.701 206.061ZM467.701 228.176C466.066 228.176 464.467 227.683 463.107 226.76C461.747 225.836 460.687 224.523 460.061 222.988C459.435 221.452 459.272 219.762 459.591 218.131C459.91 216.501 460.697 215.003 461.854 213.828C463.01 212.652 464.484 211.852 466.088 211.527C467.692 211.203 469.355 211.37 470.866 212.006C472.377 212.642 473.669 213.719 474.577 215.101C475.486 216.484 475.971 218.109 475.971 219.771C475.969 221.999 475.097 224.135 473.546 225.709C471.996 227.284 469.893 228.169 467.701 228.169V228.176Z" fill="black"/>
<path d="M1081.23 150C1078.56 150 1075.95 150.804 1073.74 152.309C1071.52 153.815 1069.79 155.955 1068.77 158.459C1067.75 160.963 1067.48 163.718 1068 166.376C1068.52 169.034 1069.81 171.476 1071.69 173.392C1073.58 175.309 1075.98 176.614 1078.6 177.142C1081.21 177.671 1083.92 177.4 1086.39 176.363C1088.85 175.325 1090.95 173.569 1092.44 171.316C1093.92 169.062 1094.71 166.413 1094.71 163.703C1094.71 160.069 1093.29 156.583 1090.76 154.013C1088.23 151.444 1084.8 150 1081.23 150ZM1081.23 172.116C1079.59 172.116 1077.99 171.623 1076.63 170.699C1075.27 169.776 1074.21 168.463 1073.59 166.927C1072.96 165.391 1072.8 163.701 1073.12 162.071C1073.43 160.44 1074.22 158.943 1075.38 157.767C1076.54 156.592 1078.01 155.791 1079.61 155.467C1081.22 155.143 1082.88 155.309 1084.39 155.945C1085.9 156.581 1087.19 157.659 1088.1 159.041C1089.01 160.423 1089.5 162.048 1089.5 163.711C1089.5 164.814 1089.28 165.907 1088.87 166.927C1088.45 167.947 1087.84 168.873 1087.07 169.654C1086.31 170.434 1085.39 171.054 1084.39 171.476C1083.39 171.898 1082.31 172.116 1081.23 172.116V172.116Z" fill="black"/>
<path d="M113.939 366.346C111.273 366.346 108.668 367.149 106.451 368.654C104.235 370.158 102.507 372.297 101.486 374.8C100.465 377.302 100.196 380.056 100.715 382.714C101.233 385.371 102.515 387.813 104.398 389.73C106.281 391.647 108.681 392.954 111.295 393.485C113.908 394.017 116.618 393.749 119.082 392.715C121.546 391.682 123.653 389.929 125.137 387.678C126.621 385.428 127.416 382.781 127.42 380.072C127.423 378.27 127.077 376.486 126.401 374.821C125.725 373.156 124.732 371.642 123.48 370.368C122.228 369.093 120.74 368.081 119.103 367.391C117.466 366.701 115.711 366.346 113.939 366.346V366.346ZM113.939 388.462C112.302 388.465 110.701 387.974 109.339 387.052C107.977 386.129 106.914 384.817 106.286 383.28C105.659 381.744 105.494 380.052 105.812 378.42C106.131 376.789 106.919 375.289 108.076 374.113C109.234 372.937 110.708 372.136 112.314 371.812C113.92 371.488 115.584 371.656 117.095 372.294C118.607 372.932 119.898 374.012 120.806 375.396C121.713 376.781 122.196 378.408 122.193 380.072C122.193 382.298 121.324 384.434 119.776 386.01C118.229 387.586 116.129 388.473 113.939 388.477V388.462Z" fill="black"/>
<path d="M190.072 666.173C187.405 666.173 184.799 666.977 182.582 668.483C180.365 669.988 178.637 672.129 177.616 674.632C176.596 677.136 176.329 679.891 176.849 682.55C177.369 685.208 178.653 687.649 180.539 689.566C182.424 691.482 184.827 692.787 187.442 693.316C190.057 693.844 192.768 693.573 195.231 692.536C197.695 691.499 199.8 689.742 201.281 687.489C202.763 685.236 203.554 682.586 203.554 679.876C203.554 676.242 202.133 672.757 199.605 670.187C197.077 667.617 193.647 666.173 190.072 666.173ZM190.072 688.289C188.436 688.289 186.837 687.796 185.478 686.873C184.118 685.949 183.058 684.636 182.432 683.1C181.806 681.565 181.642 679.875 181.961 678.244C182.28 676.614 183.068 675.116 184.224 673.941C185.381 672.765 186.854 671.965 188.459 671.64C190.063 671.316 191.725 671.482 193.236 672.119C194.748 672.755 196.039 673.832 196.948 675.214C197.856 676.596 198.341 678.222 198.341 679.884C198.341 680.988 198.128 682.081 197.712 683.1C197.296 684.12 196.687 685.047 195.919 685.827C195.151 686.608 194.24 687.227 193.236 687.649C192.233 688.072 191.158 688.289 190.072 688.289V688.289Z" fill="black"/>
<path d="M1166.39 674.586C1163.72 674.586 1161.11 675.39 1158.9 676.896C1156.68 678.401 1154.95 680.541 1153.93 683.045C1152.91 685.549 1152.65 688.304 1153.17 690.962C1153.69 693.621 1154.97 696.062 1156.85 697.979C1158.74 699.895 1161.14 701.2 1163.76 701.729C1166.37 702.257 1169.08 701.986 1171.55 700.949C1174.01 699.912 1176.12 698.155 1177.6 695.902C1179.08 693.649 1179.87 690.999 1179.87 688.289C1179.87 684.655 1178.45 681.17 1175.92 678.6C1173.39 676.03 1169.96 674.586 1166.39 674.586ZM1166.39 696.702C1164.75 696.702 1163.15 696.209 1161.79 695.286C1160.43 694.362 1159.37 693.049 1158.75 691.513C1158.12 689.978 1157.96 688.288 1158.28 686.657C1158.6 685.027 1159.38 683.529 1160.54 682.353C1161.7 681.178 1163.17 680.377 1164.77 680.053C1166.38 679.729 1168.04 679.895 1169.55 680.531C1171.06 681.168 1172.36 682.245 1173.26 683.627C1174.17 685.009 1174.66 686.634 1174.66 688.297C1174.66 690.525 1173.78 692.661 1172.23 694.235C1170.68 695.81 1168.58 696.694 1166.39 696.694V696.702Z" fill="black"/>
<path d="M1448.47 400.653C1445.8 400.653 1443.2 401.457 1440.98 402.962C1438.76 404.468 1437.04 406.608 1436.02 409.112C1435 411.616 1434.73 414.371 1435.25 417.029C1435.77 419.687 1437.05 422.129 1438.94 424.045C1440.82 425.962 1443.23 427.267 1445.84 427.795C1448.46 428.324 1451.17 428.053 1453.63 427.016C1456.09 425.979 1458.2 424.222 1459.68 421.969C1461.16 419.715 1461.95 417.066 1461.95 414.356C1461.95 410.722 1460.53 407.236 1458 404.667C1455.48 402.097 1452.05 400.653 1448.47 400.653V400.653ZM1448.47 422.769C1446.84 422.769 1445.24 422.276 1443.88 421.352C1442.52 420.429 1441.46 419.116 1440.83 417.58C1440.2 416.044 1440.04 414.354 1440.36 412.724C1440.68 411.093 1441.47 409.596 1442.62 408.42C1443.78 407.245 1445.25 406.444 1446.86 406.12C1448.46 405.796 1450.12 405.962 1451.64 406.598C1453.15 407.234 1454.44 408.312 1455.35 409.694C1456.26 411.076 1456.74 412.701 1456.74 414.364C1456.74 415.467 1456.53 416.56 1456.11 417.58C1455.7 418.6 1455.09 419.527 1454.32 420.307C1453.55 421.088 1452.64 421.707 1451.64 422.129C1450.63 422.551 1449.56 422.769 1448.47 422.769V422.769Z" fill="black"/>
<path d="M460.752 570.338V565.318C460.752 541.001 441.357 521.287 417.432 521.287H150.31C126.384 521.287 106.989 541.001 106.989 565.318V570.338C106.989 594.656 126.384 614.369 150.31 614.369H417.432C441.357 614.369 460.752 594.656 460.752 570.338Z" fill="black"/>
<path d="M405.589 499.333C405.589 473.627 385.088 452.789 359.799 452.789C334.51 452.789 314.009 473.627 314.009 499.333V712.286C314.009 737.992 334.51 758.831 359.799 758.831C385.088 758.831 405.589 737.992 405.589 712.286V499.333Z" fill="black"/>
<path d="M398.913 288.181C413.42 267.124 408.386 238.102 387.671 223.359C366.955 208.616 338.402 213.734 323.896 234.792L113.266 540.537C98.7597 561.594 103.793 590.616 124.509 605.359C145.224 620.102 173.777 614.984 188.284 593.926L398.913 288.181Z" fill="black"/>
<path d="M1411.18 298.657C1411.18 252.994 1390.63 215.977 1365.28 215.977C1339.93 215.977 1319.38 252.994 1319.38 298.657V676.938C1319.38 722.601 1339.93 759.618 1365.28 759.618C1390.63 759.618 1411.18 722.601 1411.18 676.938V298.657Z" fill="black"/>
<path d="M1401.85 275.458C1410.62 262.725 1400.94 240.45 1380.22 225.707C1359.51 210.964 1335.6 209.335 1326.83 222.068L1199.46 406.953C1190.69 419.687 1200.37 441.961 1221.09 456.704C1241.8 471.447 1265.71 473.077 1274.48 460.343L1401.85 275.458Z" fill="black"/>
<path d="M786.443 216.131C639.002 216.131 519.473 337.622 519.473 487.481C519.473 637.341 638.995 758.847 786.443 758.847C933.892 758.847 1053.41 637.357 1053.41 487.497C1053.41 337.637 933.884 216.131 786.443 216.131ZM786.443 666.844C688.984 666.844 609.976 586.54 609.976 487.481C609.976 388.423 688.984 308.118 786.443 308.118C883.903 308.118 962.911 388.423 962.911 487.481C962.911 586.54 883.903 666.844 786.443 666.844Z" fill="black"/>
<path d="M966.161 275.6C968.237 273.111 967.934 269.384 965.486 267.275C963.038 265.165 959.371 265.472 957.295 267.96C955.22 270.449 955.522 274.176 957.97 276.286C960.418 278.395 964.086 278.088 966.161 275.6Z" fill="black"/>
<path d="M985.99 363.778L1027.72 441.291C1052.53 403.907 1022.51 331.46 958.109 275.978C894.069 220.804 819.271 202.467 786.792 232.795L873.441 266.833L985.99 363.778Z" fill="black"/>
<path d="M958.094 275.978C894.054 220.804 819.256 202.467 786.777 232.795L873.426 266.833L958.094 275.978Z" fill="black"/>
<path d="M958.094 275.978L873.426 266.802L985.99 363.778L958.094 275.978Z" fill="black"/>
<path d="M956.667 401.833L1027.7 441.291L985.99 363.778L873.426 266.802L786.777 232.757L836.068 297.94L956.667 401.833Z" fill="black"/>
<path d="M925.706 311.862L839.566 415.137L842.518 417.68L928.657 314.405L925.706 311.862Z" fill="black"/>
<path d="M857.675 409.026C860.583 405.54 860.159 400.319 856.73 397.364C853.3 394.409 848.164 394.839 845.256 398.324L839.953 404.683C837.045 408.169 837.469 413.39 840.898 416.345C844.328 419.3 849.465 418.87 852.372 415.384L857.675 409.026Z" fill="black"/>
<path d="M632.781 569.976C638.092 570.392 642.584 567.801 642.91 564.123C643.236 560.445 639.154 556.998 633.806 556.512C633.257 556.48 632.708 556.48 632.159 556.512L575.335 493.558C575.335 493.481 575.335 493.411 575.335 493.334C575.335 487.867 572.3 483.441 568.658 483.456C565.017 483.472 562.02 487.905 562.035 493.38C562.035 493.38 562.035 493.45 562.035 493.481L523.942 529.006H523.874C518.517 528.52 513.905 531.142 513.578 534.859C513.252 538.576 517.273 541.923 522.569 542.447L580.289 606.388C580.289 606.388 580.289 606.388 580.289 606.435C580.289 611.902 583.323 616.328 586.965 616.313C590.607 616.297 593.528 611.948 593.573 606.558L632.781 569.976Z" fill="black"/>
<path d="M568.643 483.418C565.024 482.778 562.005 487.867 562.02 493.342C562.02 493.342 562.02 493.411 562.02 493.442L523.927 528.968H523.858C518.502 528.482 513.889 531.104 513.563 534.821C513.237 538.537 517.258 541.884 522.554 542.408L580.273 606.35C580.273 606.35 580.273 606.35 580.273 606.396C580.273 611.863 583.308 616.29 586.95 616.274C590.592 616.259 593.512 611.91 593.558 606.519C493.602 528.281 593.383 487.774 568.643 483.418Z" fill="black"/>
<path d="M951.19 663.39L926.024 638.105L967.956 585.614L1002.35 620.168L951.19 663.39Z" fill="black"/>
<path d="M951.19 663.39L926.024 638.105L928.612 634.904L954.315 660.722L951.19 663.39Z" fill="black"/>
<path d="M967.114 650.473L938.558 621.772L958.86 596.68L991.566 629.545L967.114 650.473Z" fill="black"/>
<path d="M963.28 605.558C963.88 606.16 964.22 606.98 964.224 607.837C964.229 608.694 963.899 609.518 963.306 610.127L945.417 628.52L940.896 623.977L958.769 605.6C959.062 605.299 959.411 605.059 959.796 604.894C960.181 604.729 960.594 604.643 961.011 604.641C961.429 604.639 961.843 604.72 962.229 604.88C962.616 605.04 962.967 605.276 963.264 605.574L963.28 605.558Z" fill="black"/>
<path d="M950.461 633.694L968.351 615.302C968.947 614.698 969.754 614.358 970.597 614.358C971.439 614.358 972.246 614.698 972.842 615.302V615.302C973.437 615.908 973.771 616.729 973.771 617.585C973.771 618.441 973.437 619.262 972.842 619.868L954.953 638.259L950.461 633.694Z" fill="black"/>
<path d="M959.854 643.248L977.743 624.857C978.339 624.252 979.147 623.912 979.989 623.912C980.831 623.912 981.639 624.252 982.235 624.857V624.857C982.83 625.462 983.164 626.283 983.164 627.139C983.164 627.995 982.83 628.816 982.235 629.422L964.368 647.805L959.854 643.248Z" fill="black"/>
<path d="M978.353 584.875L1002.86 609.789C1003.68 610.613 1004.13 611.731 1004.13 612.897C1004.13 614.062 1003.68 615.18 1002.86 616.005L998.401 620.541L967.774 589.412L972.237 584.875C973.048 584.051 974.148 583.588 975.295 583.588C976.442 583.588 977.542 584.051 978.353 584.875V584.875Z" fill="black"/>
<path d="M973.314 585.511L1002.42 614.753C1003.17 615.507 1003.59 616.535 1003.6 617.608C1003.61 618.682 1003.19 619.714 1002.45 620.478L999.895 623.105L965.127 588.171L967.676 585.549C968.419 584.786 969.429 584.353 970.486 584.347C971.542 584.341 972.558 584.761 973.309 585.516L973.314 585.511Z" fill="black"/>
<path d="M723.799 331.213C753.081 320.026 767.897 286.829 756.89 257.066C745.884 227.303 713.223 212.244 683.94 223.431C654.657 234.618 639.842 267.815 650.848 297.578C661.855 327.341 694.516 342.4 723.799 331.213Z" fill="black"/>
<path d="M720.804 323.114C745.686 313.608 758.275 285.4 748.922 260.11C739.57 234.82 711.817 222.024 686.935 231.53C662.053 241.036 649.464 269.244 658.817 294.534C668.169 319.824 695.922 332.62 720.804 323.114Z" fill="black"/>
<path d="M706.403 234.885C706.403 233.599 705.377 232.556 704.112 232.556C702.847 232.556 701.821 233.599 701.821 234.885V274.953C701.821 276.239 702.847 277.281 704.112 277.281C705.377 277.281 706.403 276.239 706.403 274.953V234.885Z" fill="black"/>
<path d="M741.88 302.313C742.844 303.146 744.29 303.028 745.11 302.049C745.93 301.069 745.814 299.599 744.85 298.766L726.385 282.793C725.421 281.959 723.975 282.078 723.155 283.057C722.335 284.036 722.451 285.506 723.415 286.34L741.88 302.313Z" fill="black"/>
<path d="M704.67 279.487C705.847 279.038 706.442 277.704 706 276.508C705.558 275.312 704.245 274.707 703.068 275.157C701.892 275.606 701.297 276.94 701.739 278.136C702.181 279.332 703.493 279.937 704.67 279.487Z" fill="black"/>
<path d="M492.965 381.213L556.717 340.428L627.569 333.265L576.033 371.628L492.965 381.213Z" fill="black"/>
<path d="M585.706 369.585L493.845 388.971L489.635 382.038L582.557 362.066L585.706 369.585Z" fill="black"/>
<path d="M562.634 346.667L493.845 388.971L487.434 378.622L555.586 335.023L560.04 334.221L562.634 346.667Z" fill="black"/>
<path d="M562.634 346.667L493.845 388.971L487.434 378.622L555.586 335.023L560.04 334.221L562.634 346.667Z" fill="black"/>
<path d="M627.569 333.265L562.634 346.667L555.586 335.023L620.946 323.24L627.569 333.265Z" fill="black"/>
<path d="M507.054 410.5C507.054 410.5 509.664 414.51 510.991 416.669L543.69 469.476L664.175 392.363L631.477 339.557C630.146 337.413 628.763 335.357 627.327 333.388L507.054 410.5Z" fill="black"/>
<path d="M507.054 410.5C507.054 410.5 509.664 414.51 510.991 416.669L543.69 469.476L664.175 392.363L631.477 339.557C630.146 337.413 628.763 335.357 627.327 333.388L507.054 410.5Z" fill="black"/>
<path d="M627.569 333.229L573.643 367.732L610.252 426.844L664.178 392.341L627.569 333.229Z" fill="black"/>
<path d="M971.393 451.871C970.11 451.283 968.722 450.965 967.315 450.937C965.907 450.909 964.509 451.171 963.204 451.707C961.898 452.243 960.714 453.042 959.721 454.057C958.728 455.071 957.947 456.279 957.426 457.608L915.699 557.746C914.55 560.448 914.471 563.496 915.479 566.256C916.487 569.015 918.503 571.273 921.108 572.559V572.559C922.392 573.147 923.779 573.465 925.186 573.493C926.594 573.521 927.992 573.259 929.297 572.723C930.603 572.187 931.788 571.388 932.781 570.374C933.774 569.359 934.554 568.151 935.075 566.822L976.802 466.684C977.951 463.982 978.03 460.934 977.022 458.174C976.015 455.415 973.998 453.157 971.393 451.871V451.871Z" fill="black"/>
<path d="M972.804 553.991C972.602 552.567 972.121 551.199 971.39 549.966C970.66 548.734 969.695 547.662 968.551 546.815C967.407 545.967 966.109 545.36 964.731 545.03C963.353 544.7 961.925 544.653 960.529 544.891L923.483 551.831C917.725 552.911 913.878 558.772 914.902 564.856C915.105 566.28 915.586 567.648 916.316 568.88C917.047 570.112 918.012 571.184 919.155 572.032C920.299 572.879 921.598 573.486 922.976 573.816C924.353 574.147 925.782 574.194 927.178 573.955L964.224 567.015C969.982 565.928 973.829 560.098 972.804 553.991Z" fill="black"/>
<path d="M1047.67 551.415L954.406 568.95L942.692 498.848C938.33 472.738 954.748 447.823 979.367 443.188L988.152 441.584C1012.77 436.957 1031.59 455.202 1035.95 481.305L1047.67 551.415Z" fill="black"/>
<path d="M1052.33 550.575L967.114 566.598L955.051 494.414C950.879 469.46 966.575 445.64 990.102 441.206C1013.62 436.78 1036.09 453.429 1040.27 478.382L1052.33 550.575Z" fill="black"/>
<path d="M1044.56 552.032L982.53 563.691L978.821 541.506C977.22 531.929 983.244 522.791 992.272 521.095L1021.61 515.581C1030.64 513.885 1039.26 520.269 1040.86 529.847L1044.56 552.032Z" fill="black"/>
<path d="M1044.56 552.032L988.865 562.504L985.133 540.141C983.615 531.181 989.268 522.621 997.727 521.033L1022.82 516.314C1031.27 514.725 1039.33 520.701 1040.83 529.669L1044.56 552.032Z" fill="black"/>
<path d="M995.254 448.617L985.072 450.529C983.078 450.948 981.325 452.146 980.19 453.865C979.055 455.584 978.629 457.686 979.003 459.721L980.808 470.517C980.953 471.521 981.294 472.486 981.81 473.355C982.326 474.224 983.007 474.979 983.814 475.577C984.62 476.175 985.536 476.604 986.508 476.838C987.48 477.072 988.487 477.107 989.472 476.94L999.654 475.028C1001.65 474.609 1003.4 473.411 1004.54 471.692C1005.67 469.973 1006.1 467.871 1005.72 465.836L1003.92 455.04C1003.77 454.036 1003.43 453.071 1002.92 452.202C1002.4 451.334 1001.72 450.578 1000.91 449.98C1000.11 449.382 999.19 448.953 998.218 448.719C997.246 448.485 996.239 448.45 995.254 448.617V448.617ZM1000.69 464.687C1000.93 465.957 1000.66 467.269 999.949 468.34C999.24 469.412 998.145 470.157 996.9 470.416L990.557 471.612C989.943 471.716 989.315 471.694 988.709 471.549C988.104 471.403 987.533 471.136 987.03 470.764C986.527 470.391 986.102 469.92 985.78 469.378C985.458 468.837 985.246 468.236 985.156 467.61L984.033 460.878C983.8 459.608 984.067 458.296 984.777 457.225C985.486 456.153 986.581 455.407 987.826 455.148L994.169 453.953C994.783 453.849 995.411 453.87 996.017 454.016C996.622 454.162 997.193 454.429 997.696 454.801C998.199 455.174 998.624 455.645 998.946 456.186C999.268 456.728 999.48 457.329 999.57 457.955L1000.69 464.687Z" fill="black"/>
<path d="M996.748 449.727L986.567 451.64C984.572 452.059 982.819 453.256 981.684 454.975C980.55 456.694 980.123 458.797 980.497 460.831L982.303 471.627C982.448 472.631 982.788 473.596 983.304 474.465C983.82 475.334 984.502 476.09 985.308 476.688C986.115 477.286 987.031 477.714 988.003 477.948C988.974 478.182 989.982 478.217 990.967 478.051L1001.15 476.138C1003.14 475.719 1004.9 474.521 1006.03 472.803C1007.17 471.084 1007.59 468.981 1007.22 466.946L1005.41 456.151C1005.27 455.147 1004.93 454.182 1004.41 453.313C1003.89 452.444 1003.21 451.688 1002.41 451.09C1001.6 450.492 1000.68 450.064 999.713 449.829C998.741 449.595 997.733 449.561 996.748 449.727V449.727ZM1002.19 465.797C1002.42 467.067 1002.15 468.379 1001.44 469.451C1000.73 470.522 999.639 471.268 998.394 471.527L992.052 472.722C991.438 472.826 990.81 472.805 990.204 472.659C989.598 472.514 989.027 472.247 988.524 471.874C988.021 471.501 987.596 471.03 987.275 470.489C986.953 469.947 986.741 469.346 986.65 468.72L985.565 461.965C985.333 460.695 985.6 459.383 986.309 458.312C987.019 457.24 988.114 456.495 989.359 456.236L995.701 455.04C996.315 454.936 996.943 454.958 997.549 455.103C998.155 455.249 998.726 455.516 999.229 455.888C999.732 456.261 1000.16 456.732 1000.48 457.274C1000.8 457.815 1001.01 458.416 1001.1 459.042L1002.19 465.797Z" fill="black"/>
<path d="M925.493 688.243C922.971 676.846 917.18 666.466 908.853 658.415C900.526 650.363 890.037 645.003 878.713 643.011C867.388 641.019 855.737 642.485 845.232 647.223C834.727 651.962 825.841 659.76 819.697 669.632C813.553 679.504 810.427 691.007 810.715 702.684C811.002 714.362 814.691 725.691 821.313 735.238C827.936 744.785 837.195 752.122 847.92 756.32C858.645 760.518 870.354 761.389 881.566 758.824C896.599 755.384 909.672 746.015 917.91 732.779C926.148 719.543 928.875 703.523 925.493 688.243V688.243ZM904.159 693.124C905.037 697.121 905.25 701.239 904.789 705.308C881.923 700.465 868.615 688.613 863.525 664.809C872.562 663.449 881.771 665.612 889.305 670.863C896.84 676.114 902.143 684.066 904.152 693.124H904.159ZM850.703 669.296C858.555 690.024 858.396 708.161 840.287 723.869C837.082 719.722 834.793 714.923 833.575 709.797C832.356 704.672 832.237 699.34 833.225 694.163C834.213 688.987 836.286 684.087 839.301 679.796C842.317 675.506 846.206 671.925 850.703 669.296ZM876.764 737.155C867.708 739.231 858.214 737.679 850.256 732.821C863.001 717.121 881.9 712.819 901.155 717.815C898.748 722.67 895.31 726.922 891.091 730.263C886.872 733.605 881.976 735.953 876.756 737.14L876.764 737.155Z" fill="black"/>
<path d="M716.911 695.376C715.437 683.791 710.616 672.911 703.058 664.111C695.5 655.311 685.545 648.987 674.451 645.938C663.356 642.889 651.622 643.252 640.731 646.982C629.84 650.711 620.281 657.64 613.265 666.891C606.248 676.142 602.088 687.301 601.31 698.955C600.533 710.609 603.173 722.236 608.897 732.366C614.621 742.495 623.171 750.672 633.467 755.861C643.763 761.051 655.342 763.021 666.74 761.523C682.023 759.513 695.894 751.415 705.303 739.01C714.712 726.605 718.887 710.91 716.911 695.376V695.376ZM695.22 698.229C695.729 702.292 695.565 706.413 694.735 710.42C672.407 703.48 660.238 690.371 657.332 666.212C666.457 665.705 675.433 668.723 682.46 674.661C689.487 680.599 694.045 689.018 695.22 698.229V698.229ZM644.162 669.474C650.094 690.849 648.281 708.894 628.821 722.835C626.008 718.405 624.165 713.411 623.418 708.192C622.671 702.974 623.038 697.653 624.493 692.591C625.948 687.529 628.458 682.845 631.851 678.856C635.245 674.868 639.444 671.668 644.162 669.474V669.474ZM663.933 739.476C654.727 740.691 645.415 738.252 637.933 732.667C652.052 718.232 671.261 715.703 689.978 722.519C687.141 727.128 683.333 731.039 678.829 733.971C674.325 736.903 669.238 738.784 663.933 739.476V739.476Z" fill="black"/>
<path d="M725.757 620.585L716.38 623.352L727.636 662.756L737.013 659.989L725.757 620.585Z" fill="black"/>
<path d="M678.249 610.29C675.427 606.28 679.948 596.024 685.198 597.852C710.561 606.689 741.226 605.91 741.226 605.91C747.933 606.026 752.182 613.884 746.742 617.847C735.847 624.625 721.607 630.956 703.991 625.373C690.57 621.132 682.725 616.652 678.249 610.29Z" fill="black"/>
<path d="M678.249 610.29C675.427 606.28 679.948 596.024 685.198 597.852C710.561 606.689 741.226 605.91 741.226 605.91C747.933 606.026 752.182 613.884 746.742 617.847C735.847 624.625 721.607 630.956 703.991 625.373C690.57 621.132 682.725 616.652 678.249 610.29Z" fill="black"/>
<path d="M680.692 610.838C677.968 606.982 681.974 598.106 687.042 599.872C711.547 608.424 741.219 605.91 741.219 605.91C747.698 606.018 754.458 613.575 746.856 618.156C736.333 624.718 722.578 630.833 705.554 625.435C692.595 621.333 685.016 616.96 680.692 610.838Z" fill="black"/>
<path d="M836.697 557.654C841.545 557.613 845.442 553.586 845.402 548.659C845.363 543.732 841.401 539.77 836.553 539.811C831.705 539.851 827.808 543.878 827.847 548.806C827.887 553.733 831.849 557.694 836.697 557.654Z" fill="black"/>
<path d="M872.341 697.442L845.87 622.844L847.335 622.227L846.037 619.027L844.717 619.582L834.657 591.236L835.621 590.912L833.914 585.699L838.42 584.157L836.47 578.204L829.111 580.687C820.349 563.298 830.629 552.672 840.491 548.408L836.266 541.614C818.816 549.549 813.801 563.784 821.449 583.255L814.332 585.661L816.274 591.614L820.424 590.21L822.131 595.423L823.922 594.821L834.255 623.939L832.472 624.71L833.77 627.91L835.408 627.224L861.696 701.321C862.207 702.758 863.257 703.929 864.618 704.579C865.978 705.228 867.536 705.302 868.949 704.783C870.353 704.261 871.496 703.197 872.131 701.822C872.767 700.447 872.842 698.873 872.341 697.442V697.442Z" fill="black"/>
<path d="M840.677 549.794C846.12 549.749 850.496 545.227 850.451 539.695C850.407 534.163 845.958 529.716 840.516 529.761C835.073 529.806 830.697 534.328 830.741 539.86C830.786 545.392 835.235 549.839 840.677 549.794Z" fill="black"/>
<path d="M835.568 590.742L822.116 595.485L823.421 599.795L799.591 663.305C784.911 688.389 749.291 691.62 742.266 676.167L736.887 659.588L727.616 662.534L730.104 670.314L658.296 696.494C649.578 698.26 649.305 708.67 656.315 710.251C656.315 710.251 685.987 713.073 734.459 717.576C744.97 718.599 755.573 717.205 765.481 713.497C799.106 700.727 809.279 674.424 809.279 674.424L829.627 622.559C829.706 622.366 829.839 622.201 830.01 622.086C830.181 621.97 830.382 621.908 830.587 621.908C830.792 621.908 830.993 621.97 831.164 622.086C831.335 622.201 831.468 622.366 831.547 622.559L832.624 625.127L846.09 619.251L835.568 590.742Z" fill="black"/>
<path d="M835.568 590.742L822.116 595.485L823.421 599.795L799.591 663.305C784.911 688.389 749.291 691.62 742.266 676.167L736.887 659.588L727.616 662.534L730.104 670.314L658.296 696.494C649.578 698.26 649.305 708.67 656.315 710.251C656.315 710.251 685.987 713.073 734.459 717.576C744.97 718.599 755.573 717.205 765.481 713.497C799.106 700.727 809.279 674.424 809.279 674.424L829.627 622.559C829.706 622.366 829.839 622.201 830.01 622.086C830.181 621.97 830.382 621.908 830.587 621.908C830.792 621.908 830.993 621.97 831.164 622.086C831.335 622.201 831.468 622.366 831.547 622.559L832.624 625.127L846.09 619.251L835.568 590.742Z" fill="black"/>
</svg>
